# xmcd
#
# Track frame offsets:
#	150
#	12981
#	23981
#	37754
#	50889
#	63891
#	78136
#	92383
#	104812
#	119702
#	131305
#	145501
#	158685
#	172152
#	185856
#	200412
#	213292
#	224233
#	237905
#	251005
#
# Disc length: 3524 seconds
# Revision: 0
# Processed by: cddbd v1.5.2PL0 Copyright (c) Steve Scherf et al.
# Submitted via: dBpowerAMP V12.0
#
DISCID=220dc214
DTITLE=Various Artist - Blues Legends: 20 Classic Performances, Vol. 3
DYEAR=2003
DGENRE=Blues
TTITLE0=Big Joe Williams - Baby Please Don't Go
TTITLE1=Robert Johnson - Stop Breakin' Down Blues
TTITLE2=Big Joe Williams - I Know You're Gonna Miss Me
TTITLE3=Mississippi John Hurt - Got the Blues Can't Be Satisfied
TTITLE4=Big Bill Broonzy - Night Time is the Right Time
TTITLE5=Sleepy John Estes - I Aint Gonna Be Worried
TTITLE6=Sonny Boy Williamson - Blue Bird Blues
TTITLE7=Sonny Terry and Brownie McGhee - You Got to Have Your Dollar
TTITLE8=Sonny Terry and Brownie McGhee - Baby You Gotta Change Your Mind
TTITLE9=Robert Johnson - Crossroad Blues
TTITLE10=Leadbelly - Midnight
TTITLE11=Big Bill Broonzy - How Do You Want It Done?
TTITLE12=Sonny Boy Williamson - Whiskey Headed Woman Blues
TTITLE13=Blind Blake - Rope Stretching Blues
TTITLE14=Bukka White - Panama Limited Blues
TTITLE15=Sonny Terry - Somebody's Been Talkin'
TTITLE16=Robert Johnson - Rambling on My Mind
TTITLE17=Sonny Boy Williamson - Shotgun Blues
TTITLE18=Leadbelly - Goodnight Irene
TTITLE19=Tampa Red - You Can't Get That Stuff No More
EXTD=
EXTT0=
EXTT1=
EXTT2=
EXTT3=
EXTT4=
EXTT5=
EXTT6=
EXTT7=
EXTT8=
EXTT9=
EXTT10=
EXTT11=
EXTT12=
EXTT13=
EXTT14=
EXTT15=
EXTT16=
EXTT17=
EXTT18=
EXTT19=
PLAYORDER=
